<?xml version="1.0" encoding="utf-8"?>
<!-- Generator: Adobe Illustrator 23.0.3, SVG Export Plug-In . SVG Version: 6.00 Build 0)  -->
<svg version="1.1" id="Layer_1" xmlns="http://www.w3.org/2000/svg" xmlns:xlink="http://www.w3.org/1999/xlink" x="0px" y="0px"
	 viewBox="0 0 283 64" style="enable-background:new 0 0 283 64;" xml:space="preserve">
<style type="text/css">
	.st0{fill:#2E3336;}
	.st1{fill:#FFED0A;}
	.st2{enable-background:new    ;}
	.st3{fill:#EBF0FF;}
	.st4{fill:#00BAE0;}
</style>
<g>
	<path class="st0" d="M243.3,15.9l-4.5,16c-0.3,1.2-1.5,2.1-2.7,2.1h-2.5l-0.6,2c-0.4,1.2-1.5,2-2.7,2H178l-6.7,24
		c-0.3,1.2-1.5,2.1-2.7,2.1h-20.9c-0.9,0-3.8,0-4.8,0h-11.5c-0.9,0-3.7,0-4.6,0h-19.9c-1.7,0-19.8-0.1-26.4-0.1l-0.1,0.1H68
		l-3.9-3.5l-2-0.6c0,0-21.4-21.4-22-22.1c-0.4-0.5-0.6-1.2-0.6-1.8l0,0c0-0.2,0-0.4,0.1-0.7l7.1-25.1c0.3-1.2,1.5-2.1,2.7-2.1h25.2
		c0-0.1,0-0.2,0-0.3L76,3.6c0.3-1.2,1.5-2.1,2.7-2.1h25.1c0.9,0,1.7,0.4,2.3,1.1c0.5,0.7,0.7,1.6,0.5,2.5l-0.9,3.2
		c-0.1,0.3-0.2,0.5-0.3,0.8c0,0.3,0,0.5-0.1,0.8l-0.7,2.5c0.2,0,0.5,0.1,0.7,0.2c0.3-0.2,0.7-0.2,1.1-0.2h50.9l0,0c0,0,0,0,0.1,0
		h41.7l0,0h41.6c0.9,0,1.7,0.4,2.3,1.1C243.4,14.1,243.6,15.1,243.3,15.9z"/>
</g>
<g>
	<g>
		<polygon class="st1" points="55.5,49.1 50.1,51.8 51.2,45.9 47,41.7 53,40.9 55.7,35.6 58.3,41 64.2,42 59.8,46.1 60.7,52 		"/>
	</g>
	<g>
		<path class="st0" d="M55.7,38.9l1.6,3.4L61,43l-2.7,2.6l0.6,3.7l-3.3-1.8l-3.4,1.7l0.7-3.7l-2.6-2.7l3.7-0.5L55.7,38.9 M55.8,32.2
			L53,37.6l-1,1.9l-2.2,0.3l-6,0.8l4.3,4.3l1.5,1.6l-0.4,2.1l-0.4,2.2c-0.3,1.5,1.3,2.8,2.7,2l2-1l2-1l1.9,1.1l5.3,2.9l-0.9-6
			l-0.3-2.2l1.6-1.5l4.4-4.2l-6-1l-2.2-0.4l-0.9-2L55.8,32.2L55.8,32.2z"/>
	</g>
</g>
<g>
	<g>
		<polygon class="st1" points="73.5,49.1 68.1,51.8 69.2,45.9 65,41.7 71,40.9 73.7,35.6 76.3,41 82.2,42 77.8,46.1 78.7,52 		"/>
	</g>
	<g>
		<path class="st0" d="M73.6,38.9l1.6,3.4L79,43l-2.7,2.6l0.6,3.7l-3.3-1.8l-3.4,1.7l0.7-3.7l-2.6-2.7l3.7-0.5L73.6,38.9 M73.8,32.2
			L71,37.6l-1,1.9l-2.2,0.3l-6,0.8l4.3,4.3l1.5,1.6l-0.4,2.1l-1.1,6l5.4-2.7l2-1l1.9,1.1l5.3,2.9l-0.9-6l-0.3-2.2l1.6-1.5l4.4-4.2
			l-6-1l-2.2-0.4l-0.9-2L73.8,32.2L73.8,32.2z"/>
	</g>
</g>
<g>
	<g>
		<polygon class="st1" points="64,59.5 58.6,62.2 59.8,56.3 55.5,52 61.5,51.2 64.3,45.9 66.8,51.3 72.8,52.3 68.4,56.4 69.3,62.3 
					"/>
	</g>
	<g>
		<path class="st0" d="M64.2,49.3l1.6,3.4l3.7,0.6l-2.7,2.6l0.6,3.7L64,57.8l-3.4,1.7l0.7-3.7l-2.6-2.7l3.7-0.5L64.2,49.3
			 M64.3,42.5l-2.8,5.4l-1,1.9l-2.2,0.3l-6,0.8l4.3,4.3l1.5,1.6l-0.4,2.1l-0.4,2.2c-0.3,1.5,1.3,2.8,2.7,2l2-1l2.6-1.8l2,1.2
			l5.3,1.6l-1.6-4L70,57l1.6-1.5l4.4-4.2l-6-1L67.8,50l-0.9-2L64.3,42.5L64.3,42.5z"/>
	</g>
</g>
<g>
	<g class="st2">
		<path class="st3" d="M76.1,11.8l-5.6,20.1h-10l-1.5,5H43.1l7.1-25.1H76.1z M72.4,14.8c0-0.3-0.2-0.5-0.7-0.5H53.1
			c-0.5,0-0.8,0.3-1,0.8l-5.2,18.8c0,0.2,0.1,0.3,0.2,0.4h9.3c0.3,0,0.6-0.8,1.1-2.3c0.4-1.6,0.7-2.5,0.9-2.6
			c0.2-0.1,0.5-0.2,0.9-0.2h8.7c0.2,0,0.8-1.5,1.7-4.6c0.7-2.5,1.4-4.9,2.1-7.4C72.1,15.7,72.4,14.9,72.4,14.8z M64.2,23.1
			c0,1.1-0.6,2-1.7,2.8c-1,0.7-1.9,1-2.9,1c-0.8,0-1.4-0.2-2-0.6c-0.6-0.5-0.9-1.1-0.9-1.9c0-1.1,0.6-2,1.8-2.8c1-0.7,1.9-1,2.8-1
			c0.8,0,1.4,0.2,2,0.6C63.9,21.7,64.2,22.3,64.2,23.1z"/>
		<path class="st3" d="M95.5,15.8l-5.7,20.1H69l5.6-20.1H95.5z M92.4,18.3c0-0.3-0.2-0.4-0.5-0.4H77c-0.4,0-0.6,0.1-0.7,0.4
			c-2.8,10-4.3,15.1-4.3,15.2c0,0.2,0.1,0.3,0.2,0.3h15.5c0.2,0,1.5-4.3,3.9-12.8C92.1,19.3,92.4,18.4,92.4,18.3z M85.8,25.3
			c0,1-0.5,1.9-1.6,2.7c-0.9,0.6-1.9,1-2.8,1c-0.7,0-1.2-0.2-1.8-0.6c-0.6-0.4-0.9-1-0.9-1.7c0-1.1,0.5-2,1.6-2.7
			c0.9-0.7,1.9-1,2.8-1c0.8,0,1.4,0.2,1.9,0.6C85.5,23.9,85.8,24.5,85.8,25.3z"/>
		<path class="st3" d="M116.3,15.8l-5.6,20.1H89.8l5.6-20.1h9.3l-1.1,4h2.2l1.2-4H116.3z M113.2,18.3c0-0.3-0.7-0.4-2.2-0.4
			c-1,0-1.8,0.1-2.2,0.2c-0.1,0-0.3,0.6-0.7,1.9c-0.3,0.9-0.6,2.2-1.2,4l-1.8-2h-2.2l-3,2l1.6-5.6c0-0.3-0.7-0.4-2.2-0.4
			c-1.3,0-2,0.1-2.2,0.2c-0.1,0.1-0.3,0.4-0.4,0.8c-0.9,3.3-2.3,8.4-4.2,15.1h4.6c0,0,0.3-0.2,0.7-0.5c0.5-0.3,0.7-0.5,0.7-0.5h4.6
			c0.2,0.2,0.5,0.6,0.9,1h4.7L113.2,18.3z"/>
		<path class="st3" d="M137.1,15.8l-2.3,8.1h-2.3l-1.2,3.9h2.3l-2.3,8.1h-20.8l5.6-20.1H137.1z M134,18.1c-0.2-0.1-0.4-0.2-0.5-0.2
			h-14.9c-0.4,0-0.7,0.2-0.8,0.5c-2.8,9.8-4.2,14.9-4.2,15.1c0,0.1,0.1,0.2,0.2,0.3h15.5c0.4,0,0.8-1.3,1.3-3.8
			c-0.2-0.1-0.3-0.2-0.4-0.2h-4.9c-0.1-0.1-0.2-0.3-0.2-0.4c0-0.3,0.1-0.7,0.3-1.4c0.3-0.8,0.6-1.2,0.9-1.2h2.5
			c0.3,0,0.5-0.2,0.7-0.7c0.2-0.4,0.3-0.7,0.3-1c0-0.3-0.1-0.4-0.4-0.4h-2.6c-0.1-0.1-0.2-0.3-0.2-0.4c0-0.3,0.1-0.7,0.3-1.4
			c0.3-0.8,0.6-1.2,0.9-1.2h4.8c0.3,0,0.6-0.5,0.9-1.4C133.6,19.7,133.8,18.9,134,18.1z"/>
		<path class="st3" d="M157.9,15.8l-5.6,20.1h-20.9l5.7-20.1H157.9z M134.5,33.5c0,0.2,0.1,0.4,0.4,0.4h7.1c0.3,0,0.6-0.4,0.9-1.3
			c0.2-0.6,0.3-1.1,0.5-1.7l1.5,3h5.7l-2.3-4h2.9c0.1,0,0.2,0,0.3-0.1c0.1-0.1,0.2-0.1,0.2-0.2c0.6-1.8,1.5-5,2.7-9.5
			c0.1-0.4,0.3-1.1,0.5-2c-0.1-0.2-0.4-0.2-0.8-0.2h-14.4c-0.5,0-0.8,0.1-0.9,0.3c-0.1,0.3-0.8,3-2.3,8
			C135.2,31.1,134.5,33.5,134.5,33.5z M147.2,24.9c0,0.9-0.5,1.7-1.4,2.3c-0.8,0.5-1.5,0.8-2.3,0.8c-0.6,0-1.1-0.2-1.6-0.5
			c-0.5-0.3-0.7-0.8-0.7-1.4c0-0.9,0.4-1.7,1.3-2.3c0.8-0.6,1.6-0.8,2.4-0.8c0.6,0,1.1,0.2,1.6,0.5
			C146.9,23.7,147.2,24.2,147.2,24.9z"/>
		<path class="st3" d="M178.8,15.8l-4.5,16.1h-8l-1.2,4h-12.8l5.7-20.1H178.8z M175.7,18.3c0-0.2-0.2-0.3-0.5-0.3h-14.9
			c-0.4,0-0.6,0.2-0.8,0.6l-4.2,15c0,0.2,0.1,0.3,0.2,0.3h7.4c0.2,0,0.5-0.6,0.8-1.8c0.4-1.3,0.6-2,0.7-2s0.4-0.1,0.7-0.1h7
			c0.2,0,1.2-3.2,3-9.6C175.5,18.9,175.7,18.3,175.7,18.3z M169.2,24.8c0,0.9-0.4,1.6-1.3,2.3c-0.8,0.5-1.5,0.8-2.3,0.8
			c-0.6,0-1.1-0.2-1.6-0.5c-0.5-0.4-0.7-0.9-0.7-1.5c0-0.8,0.5-1.6,1.4-2.2c0.8-0.5,1.6-0.8,2.3-0.8c0.6,0,1.2,0.2,1.6,0.5
			C169,23.7,169.2,24.2,169.2,24.8z"/>
		<path class="st3" d="M199.6,15.8l-5.6,20.1h-20.9l5.7-20.1H199.6z M176.2,33.6c0,0.2,0.1,0.3,0.4,0.3h15.1c0.3,0,0.5-0.1,0.6-0.4
			l3.6-12.7c0.2-0.6,0.4-1.5,0.7-2.7c-0.2-0.2-0.4-0.2-0.7-0.2h-4.2c-0.5,0-0.7,0.1-0.8,0.3c-0.1,0.3-0.4,1-0.7,2.3
			c-0.3,0.9-0.5,1.4-0.7,1.4h-4c-0.1,0-0.2-0.1-0.2-0.2l0.9-3.3c0-0.3-0.3-0.4-0.7-0.4h-4c-0.4,0-0.7,0.1-0.9,0.2
			c0,0.1-0.2,0.3-0.3,0.8c-0.1,0.3-0.8,2.8-2.2,7.7C176.9,31.2,176.2,33.6,176.2,33.6z"/>
		<path class="st3" d="M220.5,15.8l-4.5,16h-4.6l-1.2,4h-16.2l5.6-20.1H220.5z M217.4,18.1c-0.2-0.1-0.4-0.2-0.5-0.2h-14.9
			c-0.4,0-0.7,0.2-0.8,0.5L197.2,33c-0.1,0.4-0.2,0.6-0.1,0.7c0,0.1,0.1,0.1,0.2,0.2h10.9c0.3,0,0.5-0.7,0.9-2c0.3-1.3,0.7-2,1.1-2
			h3.8c0.2,0,0.5-0.7,1-2.2c0.4-1.4,0.6-2.2,0.6-2.4c0-0.3-0.1-0.4-0.4-0.4h-3.8c-0.1-0.1-0.2-0.2-0.2-0.3c0-0.1,0.1-0.4,0.2-0.8
			s0.3-0.7,0.4-0.7c0.2-0.1,0.6-0.2,1-0.2h3.1C216.2,22.9,216.7,21.3,217.4,18.1z"/>
		<path class="st3" d="M241.3,15.8l-4.5,16h-4.6l-1.2,4h-16.2l5.6-20.1H241.3z M238.3,18.1c-0.2-0.1-0.4-0.2-0.5-0.2h-14.9
			c-0.4,0-0.7,0.2-0.8,0.5L218,33c-0.1,0.4-0.2,0.6-0.1,0.7c0.1,0.1,0.1,0.1,0.2,0.2H229c0.3,0,0.5-0.7,0.9-2c0.3-1.3,0.7-2,1.1-2
			h3.8c0.2,0,0.5-0.7,1-2.2c0.4-1.4,0.6-2.2,0.6-2.4c0-0.3-0.1-0.4-0.4-0.4h-3.8c-0.1-0.1-0.2-0.2-0.2-0.3c0-0.1,0.1-0.4,0.2-0.8
			c0.2-0.4,0.3-0.7,0.4-0.7c0.2-0.1,0.6-0.2,1-0.2h3.1C237,22.9,237.5,21.3,238.3,18.1z"/>
	</g>
	<g class="st2">
		<path class="st3" d="M113.2,40.4l-2,7.5c-0.2,0.5-0.8,0.9-1.7,1.2c0.2,0.3,0.4,0.5,0.6,0.7c0.3,0.4,0.3,0.7,0.3,1.1l-3,9.7
			c-0.5,1.5-1.9,2.2-4.4,2.2h-22l7-25.1h22c0.8,0,1.5,0.2,2.1,0.5c0.7,0.4,1.1,0.9,1.1,1.6C113.3,40.1,113.3,40.3,113.2,40.4z
			 M109.8,42.5c0-0.6-0.3-1.1-0.8-1.5c-0.5-0.3-1-0.5-1.6-0.5H91c-0.5,0-0.8,0.2-0.9,0.6l-5.3,18.9c0,0.1,0.1,0.3,0.2,0.4h17.4
			c1.5,0,2.4-0.6,2.8-1.9l1.5-5c0.1-0.4,0.2-0.9,0.2-1.5c0-1.2-0.6-2.1-1.8-2.8c0.5-0.3,1.1-0.5,1.6-0.8c0.5-0.3,1-0.7,1.5-1.2
			c0.2-0.2,0.4-0.9,0.9-2.1C109.6,43.8,109.8,42.9,109.8,42.5z M100.9,53.5c0,0.9-0.4,1.7-1.3,2.3c-0.8,0.6-1.5,0.8-2.3,0.8
			c-0.6,0-1.1-0.2-1.5-0.5c-0.5-0.4-0.8-0.9-0.8-1.6c0-0.9,0.5-1.6,1.4-2.2c0.8-0.5,1.5-0.8,2.3-0.8c0.6,0,1.1,0.1,1.5,0.4
			C100.6,52.4,100.9,52.9,100.9,53.5z M103.4,44.8c0,0.9-0.4,1.7-1.3,2.3c-0.8,0.5-1.5,0.8-2.3,0.8c-0.6,0-1.2-0.2-1.6-0.5
			c-0.4-0.3-0.7-0.8-0.7-1.4c0-0.9,0.4-1.6,1.3-2.2c0.8-0.6,1.6-0.8,2.4-0.8c0.5,0,1,0.1,1.5,0.4C103.1,43.7,103.4,44.2,103.4,44.8z
			"/>
		<path class="st3" d="M133.1,41.9l-5.7,20.1h-20.8l5.6-20.1H133.1z M130.1,44.3c0-0.3-0.2-0.4-0.5-0.4h-14.9
			c-0.4,0-0.6,0.1-0.7,0.4c-2.8,10-4.3,15.1-4.3,15.2c0,0.2,0.1,0.3,0.2,0.3h15.5c0.2,0,1.5-4.3,3.9-12.8
			C129.8,45.3,130.1,44.4,130.1,44.3z M123.4,51.3c0,1-0.5,1.9-1.6,2.7c-0.9,0.6-1.9,1-2.8,1c-0.7,0-1.2-0.2-1.8-0.6
			c-0.6-0.4-0.9-1-0.9-1.7c0-1.1,0.5-2,1.6-2.7c0.9-0.7,1.9-1,2.8-1c0.8,0,1.4,0.2,1.9,0.6C123.2,50,123.4,50.6,123.4,51.3z"/>
		<path class="st3" d="M153.9,41.9c0,0.1-0.2,0.8-0.4,2.1c-0.2,0.9-0.4,1.5-0.7,1.9c-0.9,0.9-1.9,1.7-2.8,2.6
			c-1.8,1.7-3.1,3.2-3.8,4.4c-0.6,1.1-1.1,2.5-1.6,4.4c-0.3,1.5-0.7,3.1-1,4.6H132l2.5-9l-2.6-7l1.2-4.1H153.9z M150.8,44.1
			c-0.2-0.1-0.3-0.2-0.4-0.2h-5.2l-3.4,4l-1.2-4h-5.2c-0.4,0-0.6,0.2-0.7,0.6c-0.1,0.5-0.2,0.9-0.4,1.4l2.6,7l-1.9,6.7
			c0,0.1,0.1,0.2,0.2,0.3h6.3c0.2,0,0.5-0.7,1-2.2c0.3-1.1,0.6-2.2,0.9-3.3c0.1-0.5,0.3-0.9,0.4-1.5c0.5-0.7,1.7-1.8,3.4-3.4
			c1.5-1.4,2.5-2.6,3.2-3.6c0.4-0.6,0.6-1,0.6-1.3c0-0.1,0-0.2-0.1-0.3C150.8,44.3,150.8,44.2,150.8,44.1z"/>
		<path class="st3" d="M174.8,41.9l-5.6,20.1h-20.9l5.6-20.1H174.8z M171.8,44.1c-0.2-0.2-0.4-0.2-0.8-0.2h-14.4
			c-0.5,0-0.8,0.1-0.9,0.3c-0.2,0.4-0.5,1.3-0.8,2.6c-0.3,1.2-0.5,1.8-0.5,1.9c0,0.2,0.1,0.4,0.3,0.7c0.2,0.3,0.3,0.5,0.5,0.6
			c0.6,0.3,1.1,0.6,1.7,0.9c0.8,0.4,1.2,0.9,1.2,1.3c0,0.3-0.1,0.5-0.2,0.8H154c-0.3,0-0.6,0.1-0.8,0.2c-0.2,0.1-0.3,0.4-0.5,0.9
			c-0.1,0.4-0.2,0.8-0.3,1.2c-0.4,1.2-0.8,2.8-1.2,4.5c0.1,0.1,0.3,0.2,0.4,0.2h15.1c0.3,0,0.5-0.1,0.6-0.4l2-7.4
			c0-0.5-0.4-1-1.3-1.5c-0.5-0.3-1-0.5-1.5-0.8c-0.5-0.5-0.8-0.9-0.8-1.2c0-0.2,0.1-0.5,0.2-0.8h4.3
			C170.8,47.9,171.2,46.6,171.8,44.1z"/>
	</g>
	<g class="st2">
		<path class="st3" d="M87.8,5l-1.2,4.5h-1.9l-1,3.6H79l1-3.6h-1.8L79.4,5H87.8z M86.5,6c-0.1-0.1-0.2-0.1-0.3-0.1h-5.8
			c-0.2,0-0.3,0-0.4,0.1c0,0.1-0.1,0.5-0.3,1.2c-0.3,0.9-0.4,1.4-0.4,1.4c0,0.1,0.1,0.1,0.2,0.1h1.7l-1,3.5c0,0.1,0.1,0.1,0.2,0.1
			h2.4c0,0,0.1,0,0.1,0c0.1,0,0.1-0.1,0.1-0.1c0.2-0.8,0.6-2,1-3.5h1.6c0.1,0,0.2,0,0.2-0.1C86.1,7.9,86.3,7,86.5,6z"/>
		<path class="st3" d="M96.1,5l-2.3,8.1h-8.3L87.8,5H96.1z M94.9,5.9c-0.1,0-0.1-0.1-0.2-0.1h-1.9c-0.2,0-0.3,0.3-0.4,0.8
			c-0.1,0.5-0.3,0.8-0.4,0.8h-1.4c-0.1,0-0.2,0-0.2-0.1L90.8,6c0-0.1-0.1-0.1-0.2-0.1h-1.8c-0.2,0-0.2,0.1-0.3,0.2
			c-1.1,3.9-1.7,6-1.7,6.1c0,0,0,0.1,0.1,0.1h2.1c0.1,0,0.2-0.3,0.3-0.8c0.1-0.5,0.3-0.8,0.5-0.8h1.4c0.1,0,0.1,0,0.2,0.1l-0.3,1.3
			c0,0.1,0,0.1,0.1,0.1H93c0.1,0,0.2-0.1,0.3-0.4l1.3-4.8C94.7,6.8,94.8,6.4,94.9,5.9z"/>
		<path class="st3" d="M104.5,5l-0.9,3.2h-0.9l-0.5,1.6h0.9l-0.9,3.3h-8.3L96.1,5H104.5z M103.3,5.9c-0.1,0-0.1-0.1-0.2-0.1h-6
			c-0.2,0-0.3,0.1-0.3,0.2c-1.1,3.9-1.7,6-1.7,6.1c0,0,0,0.1,0.1,0.1h6.2c0.1,0,0.3-0.5,0.5-1.5c-0.1-0.1-0.1-0.1-0.2-0.1h-2
			c-0.1-0.1-0.1-0.1-0.1-0.1c0-0.1,0-0.3,0.1-0.6c0.1-0.3,0.2-0.5,0.4-0.5h1c0.1,0,0.2-0.1,0.3-0.3c0.1-0.1,0.1-0.3,0.1-0.4
			c0-0.1-0.1-0.2-0.2-0.2h-1c-0.1-0.1-0.1-0.1-0.1-0.1c0-0.1,0-0.3,0.1-0.6c0.1-0.3,0.2-0.5,0.4-0.5h1.9c0.1,0,0.3-0.2,0.4-0.5
			C103.1,6.6,103.2,6.3,103.3,5.9z"/>
	</g>
</g>
<g>
	<g class="st2">
		<path class="st4" d="M75.4,11.1l-5.6,20.1h-10l-1.5,5H42.4l7.1-25.1H75.4z M71.7,14.1c0-0.3-0.2-0.5-0.7-0.5H52.4
			c-0.5,0-0.8,0.3-1,0.8l-5.2,18.8c0,0.2,0.1,0.3,0.2,0.4h9.3c0.3,0,0.6-0.8,1.1-2.3c0.4-1.6,0.7-2.5,0.9-2.6
			c0.2-0.1,0.5-0.2,0.9-0.2h8.7c0.2,0,0.8-1.5,1.7-4.6c0.7-2.5,1.4-4.9,2.1-7.4C71.4,15,71.7,14.2,71.7,14.1z M63.5,22.4
			c0,1.1-0.6,2-1.7,2.8c-1,0.7-1.9,1-2.9,1c-0.8,0-1.4-0.2-2-0.6c-0.6-0.5-0.9-1.1-0.9-1.9c0-1.1,0.6-2,1.8-2.8c1-0.7,1.9-1,2.8-1
			c0.8,0,1.4,0.2,2,0.6C63.2,21,63.5,21.6,63.5,22.4z"/>
		<path class="st4" d="M94.8,15.1l-5.7,20.1H68.3l5.6-20.1H94.8z M91.7,17.6c0-0.3-0.2-0.4-0.5-0.4H76.3c-0.4,0-0.6,0.1-0.7,0.4
			c-2.8,10-4.3,15.1-4.3,15.2c0,0.2,0.1,0.3,0.2,0.3H87c0.2,0,1.5-4.3,3.9-12.8C91.4,18.6,91.7,17.6,91.7,17.6z M85.1,24.6
			c0,1-0.5,1.9-1.6,2.7c-0.9,0.6-1.9,1-2.8,1c-0.7,0-1.2-0.2-1.8-0.6c-0.6-0.4-0.9-1-0.9-1.7c0-1.1,0.5-2,1.6-2.7
			c0.9-0.7,1.9-1,2.8-1c0.8,0,1.4,0.2,1.9,0.6C84.8,23.2,85.1,23.8,85.1,24.6z"/>
		<path class="st4" d="M115.6,15.1l-5.6,20.1H89.1l5.6-20.1h9.3l-1.1,4h2.2l1.2-4H115.6z M112.5,17.6c0-0.3-0.7-0.4-2.2-0.4
			c-1,0-1.8,0.1-2.2,0.2c-0.1,0-0.3,0.6-0.7,1.9c-0.3,0.9-0.6,2.2-1.2,4l-1.8-2h-2.2l-3,2l1.6-5.6c0-0.3-0.7-0.4-2.2-0.4
			c-1.3,0-2,0.1-2.2,0.2c-0.1,0.1-0.3,0.4-0.4,0.8c-0.9,3.3-2.3,8.4-4.2,15.1h4.6c0,0,0.3-0.2,0.7-0.5c0.5-0.3,0.7-0.5,0.7-0.5h4.6
			c0.2,0.2,0.5,0.6,0.9,1h4.7L112.5,17.6z"/>
		<path class="st4" d="M136.4,15.1l-2.3,8.1h-2.3l-1.2,3.9h2.3l-2.3,8.1h-20.8l5.6-20.1H136.4z M133.3,17.4
			c-0.2-0.1-0.4-0.2-0.5-0.2H118c-0.4,0-0.7,0.2-0.8,0.5c-2.8,9.8-4.2,14.9-4.2,15.1c0,0.1,0.1,0.2,0.2,0.3h15.5
			c0.4,0,0.8-1.3,1.3-3.8c-0.2-0.1-0.3-0.2-0.4-0.2h-4.9c-0.1-0.1-0.2-0.3-0.2-0.4c0-0.3,0.1-0.7,0.3-1.4c0.3-0.8,0.6-1.2,0.9-1.2
			h2.5c0.3,0,0.5-0.2,0.7-0.7c0.2-0.4,0.3-0.7,0.3-1c0-0.3-0.1-0.4-0.4-0.4h-2.6c-0.1-0.1-0.2-0.3-0.2-0.4c0-0.3,0.1-0.7,0.3-1.4
			c0.3-0.8,0.6-1.2,0.9-1.2h4.8c0.3,0,0.6-0.5,0.9-1.4C132.9,19,133.1,18.2,133.3,17.4z"/>
		<path class="st4" d="M157.2,15.1l-5.6,20.1h-20.9l5.7-20.1H157.2z M133.8,32.8c0,0.2,0.1,0.4,0.4,0.4h7.1c0.3,0,0.6-0.4,0.9-1.3
			c0.2-0.6,0.3-1.1,0.5-1.7l1.5,3h5.7l-2.3-4h2.9c0.1,0,0.2,0,0.3-0.1c0.1-0.1,0.2-0.1,0.2-0.2c0.6-1.8,1.5-5,2.7-9.5
			c0.1-0.4,0.3-1.1,0.5-2c-0.1-0.2-0.4-0.2-0.8-0.2H139c-0.5,0-0.8,0.1-0.9,0.3c-0.1,0.3-0.8,3-2.3,8
			C134.5,30.4,133.8,32.8,133.8,32.8z M146.5,24.2c0,0.9-0.5,1.7-1.4,2.3c-0.8,0.5-1.5,0.8-2.3,0.8c-0.6,0-1.1-0.2-1.6-0.5
			c-0.5-0.3-0.7-0.8-0.7-1.4c0-0.9,0.4-1.7,1.3-2.3c0.8-0.6,1.6-0.8,2.4-0.8c0.6,0,1.1,0.2,1.6,0.5C146.2,23,146.5,23.5,146.5,24.2z
			"/>
		<path class="st4" d="M178.1,15.1l-4.5,16.1h-8l-1.2,4h-12.8l5.7-20.1H178.1z M175,17.6c0-0.2-0.2-0.3-0.5-0.3h-14.9
			c-0.4,0-0.6,0.2-0.8,0.6l-4.2,15c0,0.2,0,0.3,0.2,0.3h7.4c0.2,0,0.5-0.6,0.8-1.8c0.4-1.3,0.6-2,0.7-2s0.4-0.1,0.7-0.1h7
			c0.2,0,1.2-3.2,3-9.6C174.8,18.2,175,17.6,175,17.6z M168.5,24.1c0,0.9-0.4,1.6-1.3,2.3c-0.8,0.5-1.5,0.8-2.3,0.8
			c-0.6,0-1.1-0.2-1.6-0.5c-0.5-0.4-0.7-0.9-0.7-1.5c0-0.8,0.5-1.6,1.4-2.2c0.8-0.5,1.6-0.8,2.3-0.8c0.6,0,1.2,0.2,1.6,0.5
			C168.3,23,168.5,23.5,168.5,24.1z"/>
		<path class="st4" d="M198.9,15.1l-5.6,20.1h-20.9l5.7-20.1H198.9z M175.5,32.9c0,0.2,0.1,0.3,0.4,0.3H191c0.3,0,0.5-0.1,0.6-0.4
			l3.6-12.7c0.2-0.6,0.4-1.5,0.7-2.7c-0.2-0.2-0.4-0.2-0.7-0.2h-4.2c-0.5,0-0.7,0.1-0.8,0.3c-0.1,0.3-0.4,1-0.7,2.3
			c-0.3,0.9-0.5,1.4-0.7,1.4h-4c-0.1,0-0.2-0.1-0.2-0.2l0.9-3.3c0-0.3-0.3-0.4-0.7-0.4h-4c-0.4,0-0.7,0.1-0.9,0.2
			c-0.1,0.1-0.2,0.3-0.3,0.8c-0.1,0.3-0.8,2.8-2.2,7.7C176.2,30.5,175.5,32.9,175.5,32.9z"/>
		<path class="st4" d="M219.8,15.1l-4.5,16h-4.6l-1.2,4h-16.2l5.6-20.1H219.8z M216.7,17.4c-0.2-0.1-0.4-0.2-0.5-0.2h-14.9
			c-0.4,0-0.7,0.2-0.8,0.5l-4.1,14.6c-0.1,0.4-0.2,0.6-0.1,0.7c0.1,0.1,0.1,0.1,0.2,0.2h10.9c0.3,0,0.5-0.7,0.9-2
			c0.3-1.3,0.7-2,1.1-2h3.8c0.2,0,0.5-0.7,1-2.2c0.4-1.4,0.6-2.2,0.6-2.4c0-0.3-0.1-0.4-0.4-0.4h-3.8c-0.1-0.1-0.2-0.2-0.2-0.3
			c0-0.1,0.1-0.4,0.2-0.8c0.2-0.4,0.3-0.7,0.4-0.7c0.2-0.1,0.6-0.2,1-0.2h3.1C215.5,22.2,216,20.6,216.7,17.4z"/>
		<path class="st4" d="M240.6,15.1l-4.5,16h-4.6l-1.2,4h-16.2l5.6-20.1H240.6z M237.6,17.4c-0.2-0.1-0.4-0.2-0.5-0.2h-14.9
			c-0.4,0-0.7,0.2-0.8,0.5l-4.1,14.6c-0.1,0.4-0.2,0.6-0.1,0.7c0,0.1,0.1,0.1,0.2,0.2h10.9c0.3,0,0.5-0.7,0.9-2c0.3-1.3,0.7-2,1.1-2
			h3.8c0.2,0,0.5-0.7,1-2.2c0.4-1.4,0.6-2.2,0.6-2.4c0-0.3-0.1-0.4-0.4-0.4h-3.8c-0.1-0.1-0.2-0.2-0.2-0.3c0-0.1,0.1-0.4,0.2-0.8
			s0.3-0.7,0.4-0.7c0.2-0.1,0.6-0.2,1-0.2h3.1C236.3,22.2,236.8,20.6,237.6,17.4z"/>
	</g>
	<g class="st2">
		<path class="st4" d="M112.5,39.7l-2,7.5c-0.2,0.5-0.8,0.9-1.7,1.2c0.2,0.3,0.4,0.5,0.6,0.7c0.3,0.4,0.3,0.7,0.3,1.1l-3,9.7
			c-0.5,1.5-1.9,2.2-4.4,2.2h-22l7-25.1h22c0.8,0,1.5,0.2,2.1,0.5c0.7,0.4,1.1,0.9,1.1,1.6C112.6,39.4,112.6,39.6,112.5,39.7z
			 M109.1,41.8c0-0.6-0.3-1.1-0.8-1.5c-0.5-0.3-1-0.5-1.6-0.5H90.3c-0.5,0-0.8,0.2-0.9,0.6l-5.3,18.9c0,0.1,0.1,0.3,0.2,0.4h17.4
			c1.5,0,2.4-0.6,2.8-1.9l1.5-5c0.1-0.4,0.2-0.9,0.2-1.5c0-1.2-0.6-2.1-1.8-2.8c0.5-0.3,1.1-0.5,1.6-0.8c0.5-0.3,1-0.7,1.5-1.2
			c0.2-0.2,0.4-0.9,0.9-2.1C108.9,43.1,109.1,42.2,109.1,41.8z M100.2,52.8c0,0.9-0.4,1.7-1.3,2.3c-0.8,0.6-1.5,0.8-2.3,0.8
			c-0.6,0-1.1-0.2-1.5-0.5c-0.5-0.4-0.8-0.9-0.8-1.6c0-0.9,0.5-1.6,1.4-2.2c0.8-0.5,1.5-0.8,2.3-0.8c0.6,0,1.1,0.1,1.5,0.4
			C99.9,51.7,100.2,52.2,100.2,52.8z M102.6,44.1c0,0.9-0.4,1.7-1.3,2.3c-0.8,0.5-1.5,0.8-2.3,0.8c-0.6,0-1.2-0.2-1.6-0.5
			c-0.4-0.3-0.7-0.8-0.7-1.4c0-0.9,0.4-1.6,1.3-2.2c0.8-0.6,1.6-0.8,2.4-0.8c0.5,0,1,0.1,1.5,0.4C102.4,43,102.6,43.5,102.6,44.1z"
			/>
		<path class="st4" d="M132.4,41.2l-5.7,20.1H106l5.6-20.1H132.4z M129.4,43.6c0-0.3-0.2-0.4-0.5-0.4H114c-0.4,0-0.6,0.1-0.7,0.4
			c-2.8,10-4.3,15.1-4.3,15.2c0,0.2,0.1,0.3,0.2,0.3h15.5c0.2,0,1.5-4.3,3.9-12.8C129.1,44.6,129.4,43.7,129.4,43.6z M122.7,50.6
			c0,1-0.5,1.9-1.6,2.7c-0.9,0.6-1.9,1-2.8,1c-0.7,0-1.2-0.2-1.8-0.6c-0.6-0.4-0.9-1-0.9-1.7c0-1.1,0.5-2,1.6-2.7
			c0.9-0.7,1.9-1,2.8-1c0.8,0,1.4,0.2,1.9,0.6C122.5,49.3,122.7,49.9,122.7,50.6z"/>
		<path class="st4" d="M153.2,41.2c0,0.1-0.2,0.8-0.4,2.1c-0.2,0.9-0.4,1.5-0.7,1.9c-0.9,0.9-1.9,1.7-2.8,2.6
			c-1.8,1.7-3.1,3.2-3.8,4.4c-0.6,1.1-1.1,2.5-1.6,4.4c-0.3,1.5-0.7,3.1-1,4.6h-11.5l2.5-9l-2.6-7l1.2-4.1H153.2z M150.1,43.4
			c-0.2-0.1-0.3-0.2-0.4-0.2h-5.2l-3.4,4l-1.2-4h-5.2c-0.4,0-0.6,0.2-0.7,0.6c-0.1,0.5-0.2,0.9-0.4,1.4l2.6,7l-1.9,6.7
			c0,0.1,0.1,0.2,0.2,0.3h6.3c0.2,0,0.5-0.7,1-2.2c0.3-1.1,0.6-2.2,0.9-3.3c0.1-0.5,0.3-0.9,0.4-1.5c0.5-0.7,1.7-1.8,3.4-3.4
			c1.5-1.4,2.5-2.6,3.2-3.6c0.4-0.6,0.6-1,0.6-1.3c0-0.1,0-0.2-0.1-0.3C150.1,43.6,150.1,43.5,150.1,43.4z"/>
		<path class="st4" d="M174.1,41.2l-5.6,20.1h-20.9l5.6-20.1H174.1z M171.1,43.4c-0.2-0.2-0.4-0.2-0.8-0.2h-14.4
			c-0.5,0-0.8,0.1-0.9,0.3c-0.2,0.4-0.5,1.3-0.8,2.6c-0.3,1.2-0.5,1.8-0.5,1.9c0,0.2,0.1,0.4,0.3,0.7c0.2,0.3,0.3,0.5,0.5,0.6
			c0.6,0.3,1.1,0.6,1.7,0.9c0.8,0.4,1.2,0.9,1.2,1.3c0,0.3-0.1,0.5-0.2,0.8h-3.8c-0.3,0-0.6,0.1-0.8,0.2c-0.2,0.1-0.3,0.4-0.5,0.9
			c-0.1,0.4-0.2,0.8-0.3,1.2c-0.4,1.2-0.8,2.8-1.2,4.5c0.1,0.1,0.3,0.2,0.4,0.2h15.1c0.3,0,0.5-0.1,0.6-0.4l2-7.4
			c0-0.5-0.4-1-1.3-1.5c-0.5-0.3-1-0.5-1.5-0.8c-0.5-0.5-0.8-0.9-0.8-1.2c0-0.2,0.1-0.5,0.2-0.8h4.3
			C170.1,47.2,170.5,45.9,171.1,43.4z"/>
	</g>
	<g class="st2">
		<path class="st4" d="M87.1,4.3l-1.2,4.5H84l-1,3.6h-4.7l1-3.6h-1.8l1.3-4.5H87.1z M85.8,5.2c-0.1-0.1-0.2-0.1-0.3-0.1h-5.8
			c-0.2,0-0.3,0-0.4,0.1c0,0.1-0.1,0.5-0.3,1.2c-0.3,0.9-0.4,1.4-0.4,1.4c0,0.1,0.1,0.1,0.2,0.1h1.7l-1,3.5c0,0.1,0.1,0.1,0.2,0.1
			H82c0,0,0.1,0,0.1,0c0.1,0,0.1-0.1,0.1-0.1c0.2-0.8,0.6-2,1-3.5h1.6c0.1,0,0.2,0,0.2-0.1C85.4,7.2,85.6,6.3,85.8,5.2z"/>
		<path class="st4" d="M95.4,4.3l-2.3,8.1h-8.3l2.3-8.1H95.4z M94.2,5.2c-0.1,0-0.1-0.1-0.2-0.1h-1.9c-0.2,0-0.3,0.3-0.4,0.8
			c-0.1,0.5-0.3,0.8-0.4,0.8h-1.4c-0.1,0-0.2,0-0.2-0.1l0.4-1.3c0-0.1-0.1-0.1-0.2-0.1H88c-0.2,0-0.2,0.1-0.3,0.2
			c-1.1,3.9-1.7,6-1.7,6.1c0,0,0,0.1,0.1,0.1h2.1c0.1,0,0.2-0.3,0.3-0.8c0.1-0.5,0.3-0.8,0.5-0.8h1.4c0.1,0,0.1,0,0.2,0.1l-0.3,1.3
			c0,0.1,0,0.1,0.1,0.1h2.1c0.1,0,0.2-0.1,0.3-0.4l1.3-4.8C94,6.1,94.1,5.7,94.2,5.2z"/>
		<path class="st4" d="M103.8,4.3l-0.9,3.2H102l-0.5,1.6h0.9l-0.9,3.3h-8.3l2.3-8.1H103.8z M102.6,5.2c-0.1,0-0.1-0.1-0.2-0.1h-6
			c-0.2,0-0.3,0.1-0.3,0.2c-1.1,3.9-1.7,6-1.7,6.1c0,0,0,0.1,0.1,0.1h6.2c0.1,0,0.3-0.5,0.5-1.5c-0.1-0.1-0.1-0.1-0.2-0.1h-2
			C99,9.9,99,9.9,99,9.8c0-0.1,0-0.3,0.1-0.6c0.1-0.3,0.2-0.5,0.4-0.5h1c0.1,0,0.2-0.1,0.3-0.3c0.1-0.1,0.1-0.3,0.1-0.4
			c0-0.1-0.1-0.2-0.2-0.2h-1c-0.1-0.1-0.1-0.1-0.1-0.1c0-0.1,0-0.3,0.1-0.6c0.1-0.3,0.2-0.5,0.4-0.5h1.9c0.1,0,0.3-0.2,0.4-0.5
			C102.4,5.9,102.5,5.6,102.6,5.2z"/>
	</g>
</g>
</svg>
